<svg width="32" height="32" viewBox="0 0 32 32" fill="none" xmlns="http://www.w3.org/2000/svg">
<circle cx="16" cy="16" r="16" fill="#FF3008"/>
<path d="M17.3398 12.7656C16.2969 12.7656 15.5 12.9297 14.9375 13.2461L15.6055 10.8438H22.3789L23.1875 7H12.3945L9.74609 16.6094L12.7695 17.0898L13.0391 16.8438C13.2148 16.6914 13.4961 16.5391 13.8828 16.375C14.2812 16.2109 14.6914 16.1289 15.1133 16.1289C15.7109 16.1289 16.1797 16.2812 16.5195 16.5859C16.8477 16.8906 17.0234 17.2891 17.0234 17.7578C17.0234 18.5078 16.7891 19.1055 16.332 19.5508C15.8633 19.9961 15.207 20.207 14.3398 20.207C13.7539 20.207 13.1914 20.0781 12.6406 19.8203C12.0898 19.5625 11.7266 19.3633 11.5508 19.1992C11.3633 19.0352 11.2344 18.9062 11.1406 18.8125L8 21.5195L8.23438 21.8125C8.375 22.0117 8.63281 22.2461 8.99609 22.5039C9.34766 22.7617 9.76953 23.0312 10.2383 23.3008C10.707 23.582 11.3164 23.8164 12.0664 24.0039C12.8164 24.1914 13.6016 24.2852 14.4336 24.2852C16.6133 24.2852 18.4062 23.6523 19.8008 22.375C21.1953 21.1094 21.8984 19.4805 21.8984 17.4883C21.8984 16.1992 21.4648 15.0859 20.5977 14.1602C19.7305 13.2344 18.6523 12.7656 17.3398 12.7656Z" fill="white"/>
</svg>
